<svg width="32" height="32" viewBox="0 0 32 32" fill="none" xmlns="http://www.w3.org/2000/svg">
  <!-- Gradient Definition -->
  <defs>
    <linearGradient id="bgGradient" x1="0%" y1="0%" x2="100%" y2="100%">
      <stop offset="0%" style="stop-color:#3b82f6;stop-opacity:1" />
      <stop offset="100%" style="stop-color:#ec4899;stop-opacity:1" />
    </linearGradient>
    <linearGradient id="pinkGradient" x1="0%" y1="0%" x2="100%" y2="100%">
      <stop offset="0%" style="stop-color:#f472b6;stop-opacity:1" />
      <stop offset="100%" style="stop-color:#ec4899;stop-opacity:1" />
    </linearGradient>
  </defs>
  
  <!-- Background Circle with Gradient -->
  <circle cx="16" cy="16" r="16" fill="url(#bgGradient)"/>
  
  <!-- U Letter Shape -->
  <path d="M8 10V18C8 20.2091 9.79086 22 12 22H20C22.2091 22 24 20.2091 24 18V10" 
        stroke="white" 
        stroke-width="2.5" 
        stroke-linecap="round" 
        stroke-linejoin="round"
        fill="none"/>
  
  <!-- Shopping Bag Handle -->
  <path d="M11 10V9C11 7.34315 12.3431 6 14 6H18C19.6569 6 21 7.34315 21 9V10" 
        stroke="white" 
        stroke-width="2" 
        stroke-linecap="round" 
        stroke-linejoin="round"
        fill="none"/>
  
  <!-- Star (representing quality/premium) -->
  <path d="M16 14L17.09 16.26L19.5 16.5L17.75 18.14L18.18 20.5L16 19.27L13.82 20.5L14.25 18.14L12.5 16.5L14.91 16.26L16 14Z" 
        fill="white"/>
</svg>